<mxfile host="Electron" modified="2023-09-03T11:05:10.152Z" agent="Mozilla/5.0 (Windows NT 10.0; Win64; x64) AppleWebKit/537.36 (KHTML, like Gecko) draw.io/21.6.5 Chrome/114.0.5735.243 Electron/25.3.1 Safari/537.36" etag="cZjufWAUrFPbBhckGOqu" version="21.6.5" type="device">
  <diagram id="C5RBs43oDa-KdzZeNtuy" name="Page-1">
    <mxGraphModel dx="1383" dy="798" grid="1" gridSize="10" guides="1" tooltips="1" connect="1" arrows="1" fold="1" page="1" pageScale="1" pageWidth="827" pageHeight="1169" math="0" shadow="0">
      <root>
        <mxCell id="WIyWlLk6GJQsqaUBKTNV-0" />
        <mxCell id="WIyWlLk6GJQsqaUBKTNV-1" parent="WIyWlLk6GJQsqaUBKTNV-0" />
        <mxCell id="MIeVsVOmGcZFVNaWfFyY-37" value="" style="group" vertex="1" connectable="0" parent="WIyWlLk6GJQsqaUBKTNV-1">
          <mxGeometry x="257.5" y="160" width="360" height="320" as="geometry" />
        </mxCell>
        <mxCell id="E2YOEraWsCWm__Ex9G7o-9" value="" style="rounded=0;whiteSpace=wrap;html=1;fillColor=#dae8fc;strokeColor=#6c8ebf;" parent="MIeVsVOmGcZFVNaWfFyY-37" vertex="1">
          <mxGeometry x="5" width="355" height="320" as="geometry" />
        </mxCell>
        <mxCell id="E2YOEraWsCWm__Ex9G7o-10" value="&lt;b&gt;&lt;font color=&quot;#0000ff&quot;&gt;DB&lt;br&gt;(Postgresql)&lt;/font&gt;&lt;br&gt;&lt;/b&gt;" style="text;html=1;align=center;verticalAlign=middle;resizable=0;points=[];autosize=1;strokeColor=none;fillColor=none;" parent="MIeVsVOmGcZFVNaWfFyY-37" vertex="1">
          <mxGeometry y="280" width="90" height="40" as="geometry" />
        </mxCell>
        <mxCell id="E2YOEraWsCWm__Ex9G7o-23" value="&lt;b&gt;DBVideoFeed&lt;/b&gt;" style="text;html=1;align=center;verticalAlign=middle;resizable=0;points=[];autosize=1;strokeColor=none;fillColor=none;" parent="MIeVsVOmGcZFVNaWfFyY-37" vertex="1">
          <mxGeometry x="260" y="290" width="100" height="30" as="geometry" />
        </mxCell>
        <mxCell id="MIeVsVOmGcZFVNaWfFyY-55" value="&lt;b&gt;当前用户&lt;br&gt;clientUSer&lt;br&gt;&lt;/b&gt;" style="rounded=1;whiteSpace=wrap;html=1;fontSize=12;glass=0;strokeWidth=1;shadow=0;" vertex="1" parent="MIeVsVOmGcZFVNaWfFyY-37">
          <mxGeometry x="56" y="210.5" width="65" height="40" as="geometry" />
        </mxCell>
        <mxCell id="WIyWlLk6GJQsqaUBKTNV-2" value="" style="rounded=0;html=1;jettySize=auto;orthogonalLoop=1;fontSize=11;endArrow=block;endFill=0;endSize=8;strokeWidth=1;shadow=0;labelBackgroundColor=none;edgeStyle=orthogonalEdgeStyle;entryX=0.5;entryY=0;entryDx=0;entryDy=0;" parent="WIyWlLk6GJQsqaUBKTNV-1" source="WIyWlLk6GJQsqaUBKTNV-3" target="E2YOEraWsCWm__Ex9G7o-9" edge="1">
          <mxGeometry relative="1" as="geometry" />
        </mxCell>
        <mxCell id="WIyWlLk6GJQsqaUBKTNV-3" value="&lt;b&gt;路由函数&lt;br&gt;Feed&lt;br&gt;&lt;/b&gt;" style="rounded=1;whiteSpace=wrap;html=1;fontSize=12;glass=0;strokeWidth=1;shadow=0;" parent="WIyWlLk6GJQsqaUBKTNV-1" vertex="1">
          <mxGeometry x="380" y="60" width="120" height="40" as="geometry" />
        </mxCell>
        <mxCell id="WIyWlLk6GJQsqaUBKTNV-11" value="&lt;b style=&quot;border-color: var(--border-color);&quot;&gt;&lt;b style=&quot;border-color: var(--border-color);&quot;&gt;填充response&lt;br&gt;Feed&lt;/b&gt;业务完成&lt;/b&gt;" style="rounded=1;whiteSpace=wrap;html=1;fontSize=12;glass=0;strokeWidth=1;shadow=0;" parent="WIyWlLk6GJQsqaUBKTNV-1" vertex="1">
          <mxGeometry x="430" y="545" width="120" height="40" as="geometry" />
        </mxCell>
        <mxCell id="E2YOEraWsCWm__Ex9G7o-7" style="edgeStyle=orthogonalEdgeStyle;rounded=0;orthogonalLoop=1;jettySize=auto;html=1;entryX=0.5;entryY=0;entryDx=0;entryDy=0;" parent="WIyWlLk6GJQsqaUBKTNV-1" source="E2YOEraWsCWm__Ex9G7o-5" target="E2YOEraWsCWm__Ex9G7o-6" edge="1">
          <mxGeometry relative="1" as="geometry" />
        </mxCell>
        <mxCell id="MIeVsVOmGcZFVNaWfFyY-91" value="遍历视频&lt;br style=&quot;border-color: var(--border-color); font-size: 12px; background-color: rgb(251, 251, 251);&quot;&gt;&lt;span style=&quot;font-size: 12px; background-color: rgb(251, 251, 251);&quot;&gt;结构体&lt;/span&gt;" style="edgeLabel;html=1;align=center;verticalAlign=middle;resizable=0;points=[];" vertex="1" connectable="0" parent="E2YOEraWsCWm__Ex9G7o-7">
          <mxGeometry x="-0.2489" relative="1" as="geometry">
            <mxPoint as="offset" />
          </mxGeometry>
        </mxCell>
        <mxCell id="E2YOEraWsCWm__Ex9G7o-5" value="&lt;b&gt;获取视频列表&lt;br&gt;&lt;/b&gt;" style="rhombus;whiteSpace=wrap;html=1;shadow=0;fontFamily=Helvetica;fontSize=12;align=center;strokeWidth=1;spacing=6;spacingTop=-4;" parent="WIyWlLk6GJQsqaUBKTNV-1" vertex="1">
          <mxGeometry x="425" y="170" width="130" height="80" as="geometry" />
        </mxCell>
        <mxCell id="E2YOEraWsCWm__Ex9G7o-6" value="&lt;b&gt;判断当前用户&lt;br&gt;是否赞了视频、&lt;br&gt;是否关注了作者&lt;br&gt;&lt;/b&gt;" style="rhombus;whiteSpace=wrap;html=1;shadow=0;fontFamily=Helvetica;fontSize=12;align=center;strokeWidth=1;spacing=6;spacingTop=-4;" parent="WIyWlLk6GJQsqaUBKTNV-1" vertex="1">
          <mxGeometry x="425" y="350" width="130" height="80" as="geometry" />
        </mxCell>
        <mxCell id="E2YOEraWsCWm__Ex9G7o-14" value="" style="endArrow=classic;html=1;rounded=0;entryX=0.5;entryY=0;entryDx=0;entryDy=0;exitX=0.5;exitY=1;exitDx=0;exitDy=0;" parent="WIyWlLk6GJQsqaUBKTNV-1" source="E2YOEraWsCWm__Ex9G7o-6" target="WIyWlLk6GJQsqaUBKTNV-11" edge="1">
          <mxGeometry width="50" height="50" relative="1" as="geometry">
            <mxPoint x="490" y="380" as="sourcePoint" />
            <mxPoint x="380" y="270" as="targetPoint" />
          </mxGeometry>
        </mxCell>
        <mxCell id="MIeVsVOmGcZFVNaWfFyY-0" value="Feed直接访问数据库" style="text;html=1;align=center;verticalAlign=middle;resizable=0;points=[];autosize=1;strokeColor=none;fillColor=none;" vertex="1" parent="WIyWlLk6GJQsqaUBKTNV-1">
          <mxGeometry x="310" y="100" width="130" height="30" as="geometry" />
        </mxCell>
        <mxCell id="MIeVsVOmGcZFVNaWfFyY-19" value="" style="group" vertex="1" connectable="0" parent="WIyWlLk6GJQsqaUBKTNV-1">
          <mxGeometry x="30" y="154" width="180" height="120" as="geometry" />
        </mxCell>
        <mxCell id="MIeVsVOmGcZFVNaWfFyY-12" value="" style="rounded=0;whiteSpace=wrap;html=1;fillColor=#f8cecc;strokeColor=#b85450;" vertex="1" parent="MIeVsVOmGcZFVNaWfFyY-19">
          <mxGeometry y="3" width="170" height="110" as="geometry" />
        </mxCell>
        <mxCell id="MIeVsVOmGcZFVNaWfFyY-18" value="" style="group" vertex="1" connectable="0" parent="MIeVsVOmGcZFVNaWfFyY-19">
          <mxGeometry width="180" height="120" as="geometry" />
        </mxCell>
        <mxCell id="MIeVsVOmGcZFVNaWfFyY-14" value="&lt;b&gt;通过token&lt;br&gt;在Redis中&lt;br&gt;查询user&lt;/b&gt;" style="rhombus;whiteSpace=wrap;html=1;shadow=0;fontFamily=Helvetica;fontSize=12;align=center;strokeWidth=1;spacing=6;spacingTop=-4;" vertex="1" parent="MIeVsVOmGcZFVNaWfFyY-18">
          <mxGeometry x="15" y="23" width="130" height="80" as="geometry" />
        </mxCell>
        <mxCell id="MIeVsVOmGcZFVNaWfFyY-16" value="&lt;b&gt;&lt;font color=&quot;#ff0000&quot;&gt;Redis&lt;/font&gt;&lt;/b&gt;" style="text;html=1;align=center;verticalAlign=middle;resizable=0;points=[];autosize=1;strokeColor=none;fillColor=none;" vertex="1" parent="MIeVsVOmGcZFVNaWfFyY-18">
          <mxGeometry y="90" width="60" height="30" as="geometry" />
        </mxCell>
        <mxCell id="MIeVsVOmGcZFVNaWfFyY-17" value="&lt;b&gt;GetUserByToken&lt;/b&gt;" style="text;html=1;align=center;verticalAlign=middle;resizable=0;points=[];autosize=1;strokeColor=none;fillColor=none;" vertex="1" parent="MIeVsVOmGcZFVNaWfFyY-18">
          <mxGeometry x="60" width="120" height="30" as="geometry" />
        </mxCell>
        <mxCell id="MIeVsVOmGcZFVNaWfFyY-20" value="&lt;b&gt;获取当前用户&lt;br&gt;&lt;/b&gt;" style="rhombus;whiteSpace=wrap;html=1;shadow=0;fontFamily=Helvetica;fontSize=12;align=center;strokeWidth=1;spacing=6;spacingTop=-4;" vertex="1" parent="WIyWlLk6GJQsqaUBKTNV-1">
          <mxGeometry x="284" y="170" width="130" height="80" as="geometry" />
        </mxCell>
        <mxCell id="MIeVsVOmGcZFVNaWfFyY-23" value="" style="endArrow=classic;html=1;rounded=0;entryX=1;entryY=0.25;entryDx=0;entryDy=0;exitX=0;exitY=0;exitDx=0;exitDy=0;" edge="1" parent="WIyWlLk6GJQsqaUBKTNV-1" source="MIeVsVOmGcZFVNaWfFyY-20" target="MIeVsVOmGcZFVNaWfFyY-12">
          <mxGeometry width="50" height="50" relative="1" as="geometry">
            <mxPoint x="340" y="230" as="sourcePoint" />
            <mxPoint x="390" y="180" as="targetPoint" />
          </mxGeometry>
        </mxCell>
        <mxCell id="MIeVsVOmGcZFVNaWfFyY-87" value="尝试从缓存获取" style="edgeLabel;html=1;align=center;verticalAlign=middle;resizable=0;points=[];" vertex="1" connectable="0" parent="MIeVsVOmGcZFVNaWfFyY-23">
          <mxGeometry x="0.0986" y="-3" relative="1" as="geometry">
            <mxPoint as="offset" />
          </mxGeometry>
        </mxCell>
        <mxCell id="MIeVsVOmGcZFVNaWfFyY-25" value="" style="endArrow=classic;html=1;rounded=0;exitX=1;exitY=0.75;exitDx=0;exitDy=0;entryX=0;entryY=1;entryDx=0;entryDy=0;" edge="1" parent="WIyWlLk6GJQsqaUBKTNV-1" source="MIeVsVOmGcZFVNaWfFyY-12" target="MIeVsVOmGcZFVNaWfFyY-20">
          <mxGeometry width="50" height="50" relative="1" as="geometry">
            <mxPoint x="340" y="230" as="sourcePoint" />
            <mxPoint x="420" y="390" as="targetPoint" />
          </mxGeometry>
        </mxCell>
        <mxCell id="MIeVsVOmGcZFVNaWfFyY-95" value="缓存查询成功" style="edgeLabel;html=1;align=center;verticalAlign=middle;resizable=0;points=[];" vertex="1" connectable="0" parent="MIeVsVOmGcZFVNaWfFyY-25">
          <mxGeometry x="-0.2834" y="2" relative="1" as="geometry">
            <mxPoint as="offset" />
          </mxGeometry>
        </mxCell>
        <mxCell id="MIeVsVOmGcZFVNaWfFyY-41" value="" style="group" vertex="1" connectable="0" parent="WIyWlLk6GJQsqaUBKTNV-1">
          <mxGeometry x="635" y="158.5" width="170" height="81.5" as="geometry" />
        </mxCell>
        <mxCell id="MIeVsVOmGcZFVNaWfFyY-39" value="" style="rounded=0;whiteSpace=wrap;html=1;fillColor=#dae8fc;strokeColor=#6c8ebf;" vertex="1" parent="MIeVsVOmGcZFVNaWfFyY-41">
          <mxGeometry x="5" y="2.3737864077669903" width="165" height="79.126213592233" as="geometry" />
        </mxCell>
        <mxCell id="MIeVsVOmGcZFVNaWfFyY-40" value="&lt;b&gt;&lt;font color=&quot;#0000ff&quot;&gt;DB&lt;br&gt;(Postgresql)&lt;/font&gt;&lt;br&gt;&lt;/b&gt;" style="text;html=1;align=center;verticalAlign=middle;resizable=0;points=[];autosize=1;strokeColor=none;fillColor=none;" vertex="1" parent="MIeVsVOmGcZFVNaWfFyY-41">
          <mxGeometry y="47.4757281553398" width="90" height="40" as="geometry" />
        </mxCell>
        <mxCell id="MIeVsVOmGcZFVNaWfFyY-6" value="&lt;b&gt;GetNewVideoList&lt;/b&gt;&lt;br&gt;返回比指定时间戳更早的&lt;br&gt;至多30条视频" style="text;html=1;align=center;verticalAlign=middle;resizable=0;points=[];autosize=1;strokeColor=none;fillColor=none;" vertex="1" parent="MIeVsVOmGcZFVNaWfFyY-41">
          <mxGeometry x="10" width="160" height="60" as="geometry" />
        </mxCell>
        <mxCell id="MIeVsVOmGcZFVNaWfFyY-42" value="" style="endArrow=classic;html=1;rounded=0;entryX=0;entryY=0.25;entryDx=0;entryDy=0;exitX=1;exitY=0;exitDx=0;exitDy=0;" edge="1" parent="WIyWlLk6GJQsqaUBKTNV-1" source="E2YOEraWsCWm__Ex9G7o-5" target="MIeVsVOmGcZFVNaWfFyY-39">
          <mxGeometry width="50" height="50" relative="1" as="geometry">
            <mxPoint x="490" y="350" as="sourcePoint" />
            <mxPoint x="540" y="300" as="targetPoint" />
          </mxGeometry>
        </mxCell>
        <mxCell id="MIeVsVOmGcZFVNaWfFyY-46" value="传入时间戳" style="edgeLabel;html=1;align=center;verticalAlign=middle;resizable=0;points=[];" vertex="1" connectable="0" parent="MIeVsVOmGcZFVNaWfFyY-42">
          <mxGeometry x="0.1345" y="1" relative="1" as="geometry">
            <mxPoint as="offset" />
          </mxGeometry>
        </mxCell>
        <mxCell id="MIeVsVOmGcZFVNaWfFyY-44" value="" style="endArrow=classic;html=1;rounded=0;entryX=1;entryY=1;entryDx=0;entryDy=0;exitX=0;exitY=0.75;exitDx=0;exitDy=0;" edge="1" parent="WIyWlLk6GJQsqaUBKTNV-1" source="MIeVsVOmGcZFVNaWfFyY-39" target="E2YOEraWsCWm__Ex9G7o-5">
          <mxGeometry width="50" height="50" relative="1" as="geometry">
            <mxPoint x="533" y="200" as="sourcePoint" />
            <mxPoint x="650" y="197" as="targetPoint" />
          </mxGeometry>
        </mxCell>
        <mxCell id="MIeVsVOmGcZFVNaWfFyY-47" value="返回结果" style="edgeLabel;html=1;align=center;verticalAlign=middle;resizable=0;points=[];" vertex="1" connectable="0" parent="MIeVsVOmGcZFVNaWfFyY-44">
          <mxGeometry x="-0.174" y="1" relative="1" as="geometry">
            <mxPoint as="offset" />
          </mxGeometry>
        </mxCell>
        <mxCell id="MIeVsVOmGcZFVNaWfFyY-52" value="" style="endArrow=classic;html=1;rounded=0;entryX=0;entryY=0.25;entryDx=0;entryDy=0;exitX=1;exitY=0;exitDx=0;exitDy=0;" edge="1" parent="WIyWlLk6GJQsqaUBKTNV-1" source="E2YOEraWsCWm__Ex9G7o-6" target="MIeVsVOmGcZFVNaWfFyY-49">
          <mxGeometry width="50" height="50" relative="1" as="geometry">
            <mxPoint x="528" y="353" as="sourcePoint" />
            <mxPoint x="645" y="350" as="targetPoint" />
          </mxGeometry>
        </mxCell>
        <mxCell id="MIeVsVOmGcZFVNaWfFyY-53" value="传入视频id&lt;br&gt;&lt;span style=&quot;border-color: var(--border-color); font-size: 12px; background-color: rgb(251, 251, 251);&quot;&gt;clientUSer&lt;/span&gt;" style="edgeLabel;html=1;align=center;verticalAlign=middle;resizable=0;points=[];" vertex="1" connectable="0" parent="MIeVsVOmGcZFVNaWfFyY-52">
          <mxGeometry x="0.1345" y="1" relative="1" as="geometry">
            <mxPoint as="offset" />
          </mxGeometry>
        </mxCell>
        <mxCell id="MIeVsVOmGcZFVNaWfFyY-58" value="" style="group" vertex="1" connectable="0" parent="WIyWlLk6GJQsqaUBKTNV-1">
          <mxGeometry x="27" y="337.5" width="170" height="103" as="geometry" />
        </mxCell>
        <mxCell id="MIeVsVOmGcZFVNaWfFyY-59" value="" style="rounded=0;whiteSpace=wrap;html=1;fillColor=#dae8fc;strokeColor=#6c8ebf;" vertex="1" parent="MIeVsVOmGcZFVNaWfFyY-58">
          <mxGeometry x="5" y="3" width="165" height="100" as="geometry" />
        </mxCell>
        <mxCell id="MIeVsVOmGcZFVNaWfFyY-60" value="&lt;b&gt;&lt;font color=&quot;#0000ff&quot;&gt;DB&lt;br&gt;(Postgresql)&lt;/font&gt;&lt;br&gt;&lt;/b&gt;" style="text;html=1;align=center;verticalAlign=middle;resizable=0;points=[];autosize=1;strokeColor=none;fillColor=none;" vertex="1" parent="MIeVsVOmGcZFVNaWfFyY-58">
          <mxGeometry y="60" width="90" height="40" as="geometry" />
        </mxCell>
        <mxCell id="MIeVsVOmGcZFVNaWfFyY-61" value="&lt;b style=&quot;border-color: var(--border-color);&quot;&gt;ValidateToken&lt;/b&gt;&lt;br style=&quot;border-color: var(--border-color);&quot;&gt;通过数据库查询&lt;br style=&quot;border-color: var(--border-color);&quot;&gt;当前登录用户" style="text;html=1;align=center;verticalAlign=middle;resizable=0;points=[];autosize=1;strokeColor=none;fillColor=none;" vertex="1" parent="MIeVsVOmGcZFVNaWfFyY-58">
          <mxGeometry x="35" width="110" height="60" as="geometry" />
        </mxCell>
        <mxCell id="MIeVsVOmGcZFVNaWfFyY-62" style="edgeStyle=orthogonalEdgeStyle;rounded=0;orthogonalLoop=1;jettySize=auto;html=1;entryX=0.5;entryY=0;entryDx=0;entryDy=0;" edge="1" parent="WIyWlLk6GJQsqaUBKTNV-1" source="MIeVsVOmGcZFVNaWfFyY-12" target="MIeVsVOmGcZFVNaWfFyY-59">
          <mxGeometry relative="1" as="geometry" />
        </mxCell>
        <mxCell id="MIeVsVOmGcZFVNaWfFyY-90" value="缓存未命中&lt;br style=&quot;border-color: var(--border-color); font-size: 12px; background-color: rgb(251, 251, 251);&quot;&gt;&lt;span style=&quot;font-size: 12px; background-color: rgb(251, 251, 251);&quot;&gt;查询数据库&lt;/span&gt;" style="edgeLabel;html=1;align=center;verticalAlign=middle;resizable=0;points=[];" vertex="1" connectable="0" parent="MIeVsVOmGcZFVNaWfFyY-62">
          <mxGeometry x="0.1272" relative="1" as="geometry">
            <mxPoint as="offset" />
          </mxGeometry>
        </mxCell>
        <mxCell id="MIeVsVOmGcZFVNaWfFyY-63" style="edgeStyle=orthogonalEdgeStyle;rounded=0;orthogonalLoop=1;jettySize=auto;html=1;entryX=0;entryY=0.5;entryDx=0;entryDy=0;" edge="1" parent="WIyWlLk6GJQsqaUBKTNV-1" source="MIeVsVOmGcZFVNaWfFyY-59" target="MIeVsVOmGcZFVNaWfFyY-55">
          <mxGeometry relative="1" as="geometry" />
        </mxCell>
        <mxCell id="MIeVsVOmGcZFVNaWfFyY-49" value="" style="rounded=0;whiteSpace=wrap;html=1;fillColor=#dae8fc;strokeColor=#6c8ebf;" vertex="1" parent="WIyWlLk6GJQsqaUBKTNV-1">
          <mxGeometry x="637.5" y="250" width="165" height="230" as="geometry" />
        </mxCell>
        <mxCell id="MIeVsVOmGcZFVNaWfFyY-50" value="&lt;b&gt;&lt;font color=&quot;#0000ff&quot;&gt;DB&lt;br&gt;(Postgresql)&lt;/font&gt;&lt;br&gt;&lt;/b&gt;" style="text;html=1;align=center;verticalAlign=middle;resizable=0;points=[];autosize=1;strokeColor=none;fillColor=none;" vertex="1" parent="WIyWlLk6GJQsqaUBKTNV-1">
          <mxGeometry x="630" y="439.99524271844655" width="90" height="40" as="geometry" />
        </mxCell>
        <mxCell id="MIeVsVOmGcZFVNaWfFyY-51" value="&lt;b&gt;ToApiVideo&lt;/b&gt;" style="text;html=1;align=center;verticalAlign=middle;resizable=0;points=[];autosize=1;strokeColor=none;fillColor=none;" vertex="1" parent="WIyWlLk6GJQsqaUBKTNV-1">
          <mxGeometry x="677.5" y="244.00456310679607" width="90" height="30" as="geometry" />
        </mxCell>
        <mxCell id="MIeVsVOmGcZFVNaWfFyY-67" style="edgeStyle=orthogonalEdgeStyle;rounded=0;orthogonalLoop=1;jettySize=auto;html=1;entryX=0;entryY=0.5;entryDx=0;entryDy=0;" edge="1" parent="WIyWlLk6GJQsqaUBKTNV-1" source="MIeVsVOmGcZFVNaWfFyY-55" target="E2YOEraWsCWm__Ex9G7o-6">
          <mxGeometry relative="1" as="geometry" />
        </mxCell>
        <mxCell id="MIeVsVOmGcZFVNaWfFyY-68" value="输入" style="edgeLabel;html=1;align=center;verticalAlign=middle;resizable=0;points=[];" vertex="1" connectable="0" parent="MIeVsVOmGcZFVNaWfFyY-67">
          <mxGeometry x="-0.1127" y="1" relative="1" as="geometry">
            <mxPoint as="offset" />
          </mxGeometry>
        </mxCell>
        <mxCell id="MIeVsVOmGcZFVNaWfFyY-69" style="edgeStyle=orthogonalEdgeStyle;rounded=0;orthogonalLoop=1;jettySize=auto;html=1;entryX=0.5;entryY=0;entryDx=0;entryDy=0;exitX=0.5;exitY=1;exitDx=0;exitDy=0;" edge="1" parent="WIyWlLk6GJQsqaUBKTNV-1" source="MIeVsVOmGcZFVNaWfFyY-12" target="MIeVsVOmGcZFVNaWfFyY-55">
          <mxGeometry relative="1" as="geometry">
            <Array as="points">
              <mxPoint x="115" y="290" />
              <mxPoint x="346" y="290" />
            </Array>
          </mxGeometry>
        </mxCell>
        <mxCell id="MIeVsVOmGcZFVNaWfFyY-89" value="缓存命中直接返回" style="edgeLabel;html=1;align=center;verticalAlign=middle;resizable=0;points=[];" vertex="1" connectable="0" parent="MIeVsVOmGcZFVNaWfFyY-69">
          <mxGeometry x="-0.2064" y="2" relative="1" as="geometry">
            <mxPoint as="offset" />
          </mxGeometry>
        </mxCell>
        <mxCell id="MIeVsVOmGcZFVNaWfFyY-72" value="" style="edgeStyle=orthogonalEdgeStyle;rounded=0;orthogonalLoop=1;jettySize=auto;html=1;" edge="1" parent="WIyWlLk6GJQsqaUBKTNV-1" source="MIeVsVOmGcZFVNaWfFyY-70" target="MIeVsVOmGcZFVNaWfFyY-71">
          <mxGeometry relative="1" as="geometry" />
        </mxCell>
        <mxCell id="MIeVsVOmGcZFVNaWfFyY-70" value="&lt;b&gt;普通字段填充&lt;br&gt;&lt;/b&gt;" style="rhombus;whiteSpace=wrap;html=1;shadow=0;fontFamily=Helvetica;fontSize=12;align=center;strokeWidth=1;spacing=6;spacingTop=-4;" vertex="1" parent="WIyWlLk6GJQsqaUBKTNV-1">
          <mxGeometry x="657.5" y="267" width="130" height="50" as="geometry" />
        </mxCell>
        <mxCell id="MIeVsVOmGcZFVNaWfFyY-76" value="" style="edgeStyle=orthogonalEdgeStyle;rounded=0;orthogonalLoop=1;jettySize=auto;html=1;" edge="1" parent="WIyWlLk6GJQsqaUBKTNV-1" source="MIeVsVOmGcZFVNaWfFyY-71" target="MIeVsVOmGcZFVNaWfFyY-75">
          <mxGeometry relative="1" as="geometry" />
        </mxCell>
        <mxCell id="MIeVsVOmGcZFVNaWfFyY-131" style="edgeStyle=orthogonalEdgeStyle;rounded=0;orthogonalLoop=1;jettySize=auto;html=1;entryX=0;entryY=0.5;entryDx=0;entryDy=0;exitX=1;exitY=1;exitDx=0;exitDy=0;" edge="1" parent="WIyWlLk6GJQsqaUBKTNV-1" source="MIeVsVOmGcZFVNaWfFyY-71" target="MIeVsVOmGcZFVNaWfFyY-128">
          <mxGeometry relative="1" as="geometry">
            <Array as="points">
              <mxPoint x="755" y="380" />
              <mxPoint x="940" y="380" />
              <mxPoint x="940" y="310" />
            </Array>
          </mxGeometry>
        </mxCell>
        <mxCell id="MIeVsVOmGcZFVNaWfFyY-132" value="缓存未命中&lt;br&gt;需要更新缓存" style="edgeLabel;html=1;align=center;verticalAlign=middle;resizable=0;points=[];" vertex="1" connectable="0" parent="MIeVsVOmGcZFVNaWfFyY-131">
          <mxGeometry x="0.1837" relative="1" as="geometry">
            <mxPoint x="15" y="-3" as="offset" />
          </mxGeometry>
        </mxCell>
        <mxCell id="MIeVsVOmGcZFVNaWfFyY-71" value="&lt;b&gt;clientUSer&lt;br&gt;是否点赞&lt;br&gt;&lt;/b&gt;" style="rhombus;whiteSpace=wrap;html=1;shadow=0;fontFamily=Helvetica;fontSize=12;align=center;strokeWidth=1;spacing=6;spacingTop=-4;" vertex="1" parent="WIyWlLk6GJQsqaUBKTNV-1">
          <mxGeometry x="657.5" y="334" width="130" height="50" as="geometry" />
        </mxCell>
        <mxCell id="MIeVsVOmGcZFVNaWfFyY-102" style="edgeStyle=orthogonalEdgeStyle;rounded=0;orthogonalLoop=1;jettySize=auto;html=1;entryX=0;entryY=0.5;entryDx=0;entryDy=0;" edge="1" parent="WIyWlLk6GJQsqaUBKTNV-1" source="MIeVsVOmGcZFVNaWfFyY-75" target="MIeVsVOmGcZFVNaWfFyY-99">
          <mxGeometry relative="1" as="geometry" />
        </mxCell>
        <mxCell id="MIeVsVOmGcZFVNaWfFyY-103" value="Text" style="edgeLabel;html=1;align=center;verticalAlign=middle;resizable=0;points=[];" vertex="1" connectable="0" parent="MIeVsVOmGcZFVNaWfFyY-102">
          <mxGeometry x="-0.1245" y="-2" relative="1" as="geometry">
            <mxPoint as="offset" />
          </mxGeometry>
        </mxCell>
        <mxCell id="MIeVsVOmGcZFVNaWfFyY-104" value="传入&lt;br style=&quot;border-color: var(--border-color);&quot;&gt;clientUSer" style="edgeLabel;html=1;align=center;verticalAlign=middle;resizable=0;points=[];" vertex="1" connectable="0" parent="MIeVsVOmGcZFVNaWfFyY-102">
          <mxGeometry x="-0.0435" y="-5" relative="1" as="geometry">
            <mxPoint as="offset" />
          </mxGeometry>
        </mxCell>
        <mxCell id="MIeVsVOmGcZFVNaWfFyY-75" value="&lt;b&gt;填充User，&lt;br&gt;需要知道是否被clientUSer关注&lt;br&gt;&lt;/b&gt;" style="rhombus;whiteSpace=wrap;html=1;shadow=0;fontFamily=Helvetica;fontSize=12;align=center;strokeWidth=1;spacing=6;spacingTop=-4;" vertex="1" parent="WIyWlLk6GJQsqaUBKTNV-1">
          <mxGeometry x="657.5" y="397.19" width="130" height="64" as="geometry" />
        </mxCell>
        <mxCell id="MIeVsVOmGcZFVNaWfFyY-78" value="" style="endArrow=classic;html=1;rounded=0;entryX=1;entryY=1;entryDx=0;entryDy=0;exitX=0;exitY=0.75;exitDx=0;exitDy=0;" edge="1" parent="WIyWlLk6GJQsqaUBKTNV-1" source="MIeVsVOmGcZFVNaWfFyY-49" target="E2YOEraWsCWm__Ex9G7o-6">
          <mxGeometry width="50" height="50" relative="1" as="geometry">
            <mxPoint x="533" y="380" as="sourcePoint" />
            <mxPoint x="648" y="318" as="targetPoint" />
          </mxGeometry>
        </mxCell>
        <mxCell id="MIeVsVOmGcZFVNaWfFyY-79" value="返回转换后&lt;br&gt;的结构体" style="edgeLabel;html=1;align=center;verticalAlign=middle;resizable=0;points=[];" vertex="1" connectable="0" parent="MIeVsVOmGcZFVNaWfFyY-78">
          <mxGeometry x="0.1345" y="1" relative="1" as="geometry">
            <mxPoint as="offset" />
          </mxGeometry>
        </mxCell>
        <mxCell id="MIeVsVOmGcZFVNaWfFyY-92" value="" style="endArrow=classic;html=1;rounded=0;exitX=1;exitY=0;exitDx=0;exitDy=0;entryX=0;entryY=0.5;entryDx=0;entryDy=0;" edge="1" parent="WIyWlLk6GJQsqaUBKTNV-1" source="MIeVsVOmGcZFVNaWfFyY-71" target="MIeVsVOmGcZFVNaWfFyY-81">
          <mxGeometry width="50" height="50" relative="1" as="geometry">
            <mxPoint x="977" y="139" as="sourcePoint" />
            <mxPoint x="860" y="260" as="targetPoint" />
          </mxGeometry>
        </mxCell>
        <mxCell id="MIeVsVOmGcZFVNaWfFyY-93" value="尝试从缓存获取" style="edgeLabel;html=1;align=center;verticalAlign=middle;resizable=0;points=[];" vertex="1" connectable="0" parent="MIeVsVOmGcZFVNaWfFyY-92">
          <mxGeometry x="0.0986" y="-3" relative="1" as="geometry">
            <mxPoint as="offset" />
          </mxGeometry>
        </mxCell>
        <mxCell id="MIeVsVOmGcZFVNaWfFyY-94" value="" style="group" vertex="1" connectable="0" parent="WIyWlLk6GJQsqaUBKTNV-1">
          <mxGeometry x="870" y="200" width="180" height="104" as="geometry" />
        </mxCell>
        <mxCell id="MIeVsVOmGcZFVNaWfFyY-81" value="判断某个用户是否&lt;br&gt;喜欢（点赞）了某个视频" style="rounded=0;whiteSpace=wrap;html=1;fillColor=#f8cecc;strokeColor=#b85450;" vertex="1" parent="MIeVsVOmGcZFVNaWfFyY-94">
          <mxGeometry y="2.6" width="170" height="95.33333333333334" as="geometry" />
        </mxCell>
        <mxCell id="MIeVsVOmGcZFVNaWfFyY-82" value="" style="group" vertex="1" connectable="0" parent="MIeVsVOmGcZFVNaWfFyY-94">
          <mxGeometry width="180" height="104" as="geometry" />
        </mxCell>
        <mxCell id="MIeVsVOmGcZFVNaWfFyY-84" value="&lt;b&gt;&lt;font color=&quot;#ff0000&quot;&gt;Redis&lt;/font&gt;&lt;/b&gt;" style="text;html=1;align=center;verticalAlign=middle;resizable=0;points=[];autosize=1;strokeColor=none;fillColor=none;" vertex="1" parent="MIeVsVOmGcZFVNaWfFyY-82">
          <mxGeometry y="78" width="60" height="30" as="geometry" />
        </mxCell>
        <mxCell id="MIeVsVOmGcZFVNaWfFyY-85" value="&lt;b&gt;IsVideoLikedById&lt;/b&gt;" style="text;html=1;align=center;verticalAlign=middle;resizable=0;points=[];autosize=1;strokeColor=none;fillColor=none;" vertex="1" parent="MIeVsVOmGcZFVNaWfFyY-82">
          <mxGeometry x="60" width="120" height="30" as="geometry" />
        </mxCell>
        <mxCell id="MIeVsVOmGcZFVNaWfFyY-96" style="edgeStyle=orthogonalEdgeStyle;rounded=0;orthogonalLoop=1;jettySize=auto;html=1;entryX=1;entryY=0.5;entryDx=0;entryDy=0;" edge="1" parent="WIyWlLk6GJQsqaUBKTNV-1" source="MIeVsVOmGcZFVNaWfFyY-81" target="MIeVsVOmGcZFVNaWfFyY-71">
          <mxGeometry relative="1" as="geometry">
            <Array as="points">
              <mxPoint x="920" y="359" />
            </Array>
          </mxGeometry>
        </mxCell>
        <mxCell id="MIeVsVOmGcZFVNaWfFyY-97" value="缓存查询成功" style="edgeLabel;html=1;align=center;verticalAlign=middle;resizable=0;points=[];" vertex="1" connectable="0" parent="MIeVsVOmGcZFVNaWfFyY-96">
          <mxGeometry x="-0.0786" relative="1" as="geometry">
            <mxPoint x="-22" as="offset" />
          </mxGeometry>
        </mxCell>
        <mxCell id="MIeVsVOmGcZFVNaWfFyY-98" value="" style="group" vertex="1" connectable="0" parent="WIyWlLk6GJQsqaUBKTNV-1">
          <mxGeometry x="870" y="387.25" width="170" height="81.5" as="geometry" />
        </mxCell>
        <mxCell id="MIeVsVOmGcZFVNaWfFyY-99" value="" style="rounded=0;whiteSpace=wrap;html=1;fillColor=#dae8fc;strokeColor=#6c8ebf;" vertex="1" parent="MIeVsVOmGcZFVNaWfFyY-98">
          <mxGeometry x="5" y="2.3737864077669903" width="165" height="79.126213592233" as="geometry" />
        </mxCell>
        <mxCell id="MIeVsVOmGcZFVNaWfFyY-100" value="&lt;b&gt;&lt;font color=&quot;#0000ff&quot;&gt;DB&lt;br&gt;(Postgresql)&lt;/font&gt;&lt;br&gt;&lt;/b&gt;" style="text;html=1;align=center;verticalAlign=middle;resizable=0;points=[];autosize=1;strokeColor=none;fillColor=none;" vertex="1" parent="MIeVsVOmGcZFVNaWfFyY-98">
          <mxGeometry y="47.4757281553398" width="90" height="40" as="geometry" />
        </mxCell>
        <mxCell id="MIeVsVOmGcZFVNaWfFyY-101" value="&lt;b&gt;ToApiUser&lt;/b&gt;&lt;br&gt;判断clientUSer是否&lt;br&gt;关注了当前用户" style="text;html=1;align=center;verticalAlign=middle;resizable=0;points=[];autosize=1;strokeColor=none;fillColor=none;" vertex="1" parent="MIeVsVOmGcZFVNaWfFyY-98">
          <mxGeometry x="25" width="130" height="60" as="geometry" />
        </mxCell>
        <mxCell id="MIeVsVOmGcZFVNaWfFyY-105" value="" style="group" vertex="1" connectable="0" parent="WIyWlLk6GJQsqaUBKTNV-1">
          <mxGeometry x="1050" y="384.19" width="180" height="90" as="geometry" />
        </mxCell>
        <mxCell id="MIeVsVOmGcZFVNaWfFyY-106" value="&lt;b style=&quot;border-color: var(--border-color);&quot;&gt;查询2个用户之间&lt;br&gt;是否存在关注关系&lt;br&gt;&lt;/b&gt;" style="rounded=0;whiteSpace=wrap;html=1;fillColor=#f8cecc;strokeColor=#b85450;" vertex="1" parent="MIeVsVOmGcZFVNaWfFyY-105">
          <mxGeometry y="2.25" width="170" height="82.5" as="geometry" />
        </mxCell>
        <mxCell id="MIeVsVOmGcZFVNaWfFyY-107" value="" style="group" vertex="1" connectable="0" parent="MIeVsVOmGcZFVNaWfFyY-105">
          <mxGeometry width="180" height="90" as="geometry" />
        </mxCell>
        <mxCell id="MIeVsVOmGcZFVNaWfFyY-109" value="&lt;b&gt;&lt;font color=&quot;#ff0000&quot;&gt;Redis&lt;/font&gt;&lt;/b&gt;" style="text;html=1;align=center;verticalAlign=middle;resizable=0;points=[];autosize=1;strokeColor=none;fillColor=none;" vertex="1" parent="MIeVsVOmGcZFVNaWfFyY-107">
          <mxGeometry y="60" width="60" height="30" as="geometry" />
        </mxCell>
        <mxCell id="MIeVsVOmGcZFVNaWfFyY-110" value="&lt;b&gt;IsFollow&lt;/b&gt;" style="text;html=1;align=center;verticalAlign=middle;resizable=0;points=[];autosize=1;strokeColor=none;fillColor=none;" vertex="1" parent="MIeVsVOmGcZFVNaWfFyY-107">
          <mxGeometry x="85" width="70" height="30" as="geometry" />
        </mxCell>
        <mxCell id="MIeVsVOmGcZFVNaWfFyY-113" style="edgeStyle=orthogonalEdgeStyle;rounded=0;orthogonalLoop=1;jettySize=auto;html=1;entryX=0.5;entryY=0;entryDx=0;entryDy=0;" edge="1" parent="WIyWlLk6GJQsqaUBKTNV-1" source="MIeVsVOmGcZFVNaWfFyY-101" target="MIeVsVOmGcZFVNaWfFyY-106">
          <mxGeometry relative="1" as="geometry">
            <Array as="points">
              <mxPoint x="960" y="366" />
              <mxPoint x="1135" y="366" />
            </Array>
          </mxGeometry>
        </mxCell>
        <mxCell id="MIeVsVOmGcZFVNaWfFyY-114" value="尝试从缓存获取" style="edgeLabel;html=1;align=center;verticalAlign=middle;resizable=0;points=[];" vertex="1" connectable="0" parent="MIeVsVOmGcZFVNaWfFyY-113">
          <mxGeometry x="0.0356" y="2" relative="1" as="geometry">
            <mxPoint as="offset" />
          </mxGeometry>
        </mxCell>
        <mxCell id="MIeVsVOmGcZFVNaWfFyY-115" style="edgeStyle=orthogonalEdgeStyle;rounded=0;orthogonalLoop=1;jettySize=auto;html=1;entryX=0.5;entryY=1;entryDx=0;entryDy=0;exitX=0.5;exitY=1;exitDx=0;exitDy=0;" edge="1" parent="WIyWlLk6GJQsqaUBKTNV-1" source="MIeVsVOmGcZFVNaWfFyY-106" target="MIeVsVOmGcZFVNaWfFyY-99">
          <mxGeometry relative="1" as="geometry">
            <Array as="points">
              <mxPoint x="1135" y="489" />
              <mxPoint x="958" y="489" />
            </Array>
          </mxGeometry>
        </mxCell>
        <mxCell id="MIeVsVOmGcZFVNaWfFyY-116" value="返回查询结果" style="edgeLabel;html=1;align=center;verticalAlign=middle;resizable=0;points=[];" vertex="1" connectable="0" parent="MIeVsVOmGcZFVNaWfFyY-115">
          <mxGeometry x="-0.0323" y="-2" relative="1" as="geometry">
            <mxPoint as="offset" />
          </mxGeometry>
        </mxCell>
        <mxCell id="MIeVsVOmGcZFVNaWfFyY-119" value="" style="edgeStyle=orthogonalEdgeStyle;rounded=0;orthogonalLoop=1;jettySize=auto;html=1;exitX=0.25;exitY=1;exitDx=0;exitDy=0;" edge="1" parent="WIyWlLk6GJQsqaUBKTNV-1" source="MIeVsVOmGcZFVNaWfFyY-99" target="MIeVsVOmGcZFVNaWfFyY-118">
          <mxGeometry relative="1" as="geometry" />
        </mxCell>
        <mxCell id="MIeVsVOmGcZFVNaWfFyY-126" value="缓存未命中需要更新缓存" style="edgeLabel;html=1;align=center;verticalAlign=middle;resizable=0;points=[];" vertex="1" connectable="0" parent="MIeVsVOmGcZFVNaWfFyY-119">
          <mxGeometry x="-0.1528" y="1" relative="1" as="geometry">
            <mxPoint x="-1" y="9" as="offset" />
          </mxGeometry>
        </mxCell>
        <mxCell id="MIeVsVOmGcZFVNaWfFyY-124" value="" style="group" vertex="1" connectable="0" parent="WIyWlLk6GJQsqaUBKTNV-1">
          <mxGeometry x="829" y="545" width="170" height="79.13" as="geometry" />
        </mxCell>
        <mxCell id="MIeVsVOmGcZFVNaWfFyY-118" value="更新关注与粉丝关系" style="rounded=0;whiteSpace=wrap;html=1;fillColor=#f8cecc;strokeColor=#b85450;" vertex="1" parent="MIeVsVOmGcZFVNaWfFyY-124">
          <mxGeometry x="5" width="165" height="79.126213592233" as="geometry" />
        </mxCell>
        <mxCell id="MIeVsVOmGcZFVNaWfFyY-121" value="&lt;b&gt;NewFollowRelation&lt;/b&gt;" style="text;html=1;align=center;verticalAlign=middle;resizable=0;points=[];autosize=1;strokeColor=none;fillColor=none;" vertex="1" parent="MIeVsVOmGcZFVNaWfFyY-124">
          <mxGeometry x="40" y="1.254563106796013" width="130" height="30" as="geometry" />
        </mxCell>
        <mxCell id="MIeVsVOmGcZFVNaWfFyY-122" value="&lt;b&gt;&lt;font color=&quot;#ff0000&quot;&gt;Redis&lt;/font&gt;&lt;/b&gt;" style="text;html=1;align=center;verticalAlign=middle;resizable=0;points=[];autosize=1;strokeColor=none;fillColor=none;" vertex="1" parent="MIeVsVOmGcZFVNaWfFyY-124">
          <mxGeometry y="49.129999999999995" width="60" height="30" as="geometry" />
        </mxCell>
        <mxCell id="MIeVsVOmGcZFVNaWfFyY-127" value="" style="group" vertex="1" connectable="0" parent="WIyWlLk6GJQsqaUBKTNV-1">
          <mxGeometry x="1060" y="270" width="170" height="79.13" as="geometry" />
        </mxCell>
        <mxCell id="MIeVsVOmGcZFVNaWfFyY-128" value="更新点赞缓存" style="rounded=0;whiteSpace=wrap;html=1;fillColor=#f8cecc;strokeColor=#b85450;" vertex="1" parent="MIeVsVOmGcZFVNaWfFyY-127">
          <mxGeometry x="5" width="165" height="79.126213592233" as="geometry" />
        </mxCell>
        <mxCell id="MIeVsVOmGcZFVNaWfFyY-129" value="&lt;b&gt;NewLikeVideo&lt;/b&gt;" style="text;html=1;align=center;verticalAlign=middle;resizable=0;points=[];autosize=1;strokeColor=none;fillColor=none;" vertex="1" parent="MIeVsVOmGcZFVNaWfFyY-127">
          <mxGeometry x="55" y="1.254563106796013" width="100" height="30" as="geometry" />
        </mxCell>
        <mxCell id="MIeVsVOmGcZFVNaWfFyY-130" value="&lt;b&gt;&lt;font color=&quot;#ff0000&quot;&gt;Redis&lt;/font&gt;&lt;/b&gt;" style="text;html=1;align=center;verticalAlign=middle;resizable=0;points=[];autosize=1;strokeColor=none;fillColor=none;" vertex="1" parent="MIeVsVOmGcZFVNaWfFyY-127">
          <mxGeometry y="49.129999999999995" width="60" height="30" as="geometry" />
        </mxCell>
      </root>
    </mxGraphModel>
  </diagram>
</mxfile>
